<?xml version="1.0" encoding="utf-8"?>
<!-- Generator: Adobe Illustrator 23.0.2, SVG Export Plug-In . SVG Version: 6.00 Build 0)  -->
<svg version="1.1" id="Layer_1" xmlns="http://www.w3.org/2000/svg" xmlns:xlink="http://www.w3.org/1999/xlink" x="0px" y="0px"
	 viewBox="0 0 808.1 172.4" style="enable-background:new 0 0 808.1 172.4;" xml:space="preserve">
<style type="text/css">
	.st0{stroke:#D9243A;stroke-linecap:round;stroke-miterlimit:10;}
</style>
<g>
	<g>
		<path class="st0" d="M48.7,29.8l-7.2,7.5l7.2,7.3v127.3H0.5V0.5h48.2V29.8z M34.1,30V15.4H14.7V30H34.1z M34.1,157.3V44.6H14.9
			v112.7H34.1z"/>
		<path class="st0" d="M108.3,171.9H60V0.5h14.4v156.4h19.4V0.5h14.4V171.9z"/>
		<path class="st0" d="M167.8,29.8l-7.2,7.5l7.2,7.3v127.3h-14.7V44.6H134v126.9h-14.4V0.5h48.2V29.8z M153.1,30V15.4h-19.4V30
			H153.1z"/>
		<path class="st0" d="M227.3,0.5v171.4h-14.4V15.1h-19.4v156.8H179V0.5H227.3z"/>
		<path class="st0" d="M253,0.5v171.4h-14.4V0.5H253z"/>
		<path class="st0" d="M312.5,0.5v171.4h-14.4V15.1h-19.4v156.8h-14.4V0.5H312.5z"/>
		<path class="st0" d="M372,15.1h-33.8v142.2h19.4V34.8h-9.7V25H372v147h-48.2V0.5H372V15.1z"/>
		<path class="st0" d="M434.5,0.5h24.1v171.4h-14.4v-14.6h-19.4v14.6h-14.4V0.5H434.5z M444.2,147.5V15.1h-19.4v132.4H444.2z"/>
		<path class="st0" d="M484.3,0.5v171.4h-14.4V0.5H484.3z"/>
		<path class="st0" d="M543.8,29.8l-7.2,7.5l7.2,7.3v127.3h-14.7V44.6H510v126.9h-14.4V0.5h48.2V29.8z M529.1,30V15.4h-19.4V30
			H529.1z"/>
		<path class="st0" d="M569.5,0.5v156.8h19.4h14.4v14.6h-48.2V0.5H569.5z"/>
		<path class="st0" d="M629,0.5v171.4h-14.4V0.5H629z"/>
		<path class="st0" d="M688.5,0.5v171.4h-14.4V15.1h-19.4v156.8h-14.4V0.5H688.5z"/>
		<path class="st0" d="M748,15.1h-33.8V25H748v9.8h-33.8v122.5H748v14.6h-48.2V0.5H748V15.1z"/>
		<path class="st0" d="M773.7,25h33.8v147h-48.2v-14.9h33.8V34.8h-33.8V0.5h48.2v14.6h-33.8V25z"/>
	</g>
</g>
</svg>
